<svg width="167" height="45" viewBox="0 0 167 45" fill="none" xmlns="http://www.w3.org/2000/svg">
<path d="M14.3379 3.21158L17.6581 1.93662L17.3854 2.28718L14.7618 3.70137L14.3379 3.21158Z" fill="#FA4500"/>
<path d="M15.1416 4.38855L18.3509 4.26663L18.9951 4.38855L15.3358 4.93322L15.1416 4.38855Z" fill="#FA4500"/>
<path d="M15.2949 5.48602L18.7715 6.23659L17.7985 6.32116L15.2007 5.96667L15.2949 5.48602Z" fill="#FA4500"/>
<path d="M5.32715 3.21158L2.00689 1.93662L2.27965 2.28718L4.90325 3.70137L5.32715 3.21158Z" fill="#FA4500"/>
<path d="M4.52344 4.38879L1.31418 4.26688L0.669977 4.38879L4.32923 4.93346L4.52344 4.38879Z" fill="#FA4500"/>
<path d="M4.37012 5.48602L0.893585 6.23659L1.86658 6.32116L4.46432 5.96667L4.37012 5.48602Z" fill="#FA4500"/>
<path d="M10.0419 1.23352C7.70513 1.23343 5.11523 3.482 5.11523 5.69675H6.94226C6.94226 5.69675 7.69602 1.58129 10.0419 1.58129C12.2518 1.58129 12.794 5.69675 12.794 5.69675H14.6355C14.4117 3.19721 12.1479 1.2336 10.0419 1.23352Z" fill="#333333"/>
<rect x="5.54492" y="4.80176" width="8.82639" height="0.895168" fill="#333333"/>
<path d="M7.6676 4.6465C8.14493 2.85383 8.69562 2.11047 9.64551 1.87122L9.29718 2.09672C8.40047 2.59933 8.14946 4.6465 8.14946 4.6465L7.6676 4.6465Z" fill="#333333"/>
<path d="M5.82227 6.16296H13.9993L13.2425 6.86606H6.60074L5.82227 6.16296Z" fill="#333333"/>
<path d="M11.6745 14.3522L11.834 11.3211L13.3828 27.6496L12.8317 26.2444L11.6745 14.3522Z" fill="#333333"/>
<path d="M9.95314 27.1888C9.48759 27.1888 7.92815 29.5862 7.92871 32.564H8.83106C8.61285 30.8765 9.47308 28.1707 9.95314 27.6179C10.6349 28.6071 10.8892 29.7775 10.8892 29.7775L11.2633 29.4598C10.8098 27.8138 10.2154 27.1888 9.95314 27.1888Z" fill="#333333"/>
<path d="M11.4082 30.0374C11.6109 30.8829 11.7566 31.5873 11.8711 32.7158H11.0002L11.0405 30.3797L11.4082 30.0374Z" fill="#333333"/>
<mask id="path-14-inside-1_108_1536" fill="white">
<path d="M2.02637 35.0492C3.01695 34.3218 5.18742 32.8682 5.2272 32.8193C5.2272 32.8193 7.33726 9.70088 7.73763 9.38762C8.31165 8.9385 11.2931 8.992 11.9588 9.38762C12.6245 9.78325 14.4705 32.7256 14.4705 32.7256L17.7763 35.0492L12.4761 8.19925H7.22629L2.02637 35.0492Z"/>
</mask>
<path d="M2.02637 35.0492C3.01695 34.3218 5.18742 32.8682 5.2272 32.8193C5.2272 32.8193 7.33726 9.70088 7.73763 9.38762C8.31165 8.9385 11.2931 8.992 11.9588 9.38762C12.6245 9.78325 14.4705 32.7256 14.4705 32.7256L17.7763 35.0492L12.4761 8.19925H7.22629L2.02637 35.0492Z" fill="#333333"/>
<path d="M5.2272 32.8193L7.55618 34.7102L8.13178 34.0013L8.21478 33.0919L5.2272 32.8193ZM2.02637 35.0492L-0.918908 34.4789L-2.37636 42.0044L3.80207 37.4673L2.02637 35.0492ZM7.22629 8.19925V5.19925H4.75154L4.28101 7.62885L7.22629 8.19925ZM12.4761 8.19925L15.4193 7.61826L14.9418 5.19925H12.4761V8.19925ZM17.7763 35.0492L16.0511 37.5036L22.1673 41.8025L20.7195 34.4683L17.7763 35.0492ZM14.4705 32.7256L11.4801 32.9662L11.5931 34.3701L12.7453 35.18L14.4705 32.7256ZM7.73763 9.38762L9.58629 11.7504L7.73763 9.38762ZM2.89821 30.9283C3.07177 30.7145 3.23997 30.5721 3.24824 30.5649C3.29689 30.5223 3.33584 30.4911 3.35234 30.478C3.38763 30.45 3.4129 30.4315 3.41487 30.43C3.42316 30.4239 3.41848 30.4275 3.39111 30.4468C3.34047 30.4825 3.26015 30.5381 3.1489 30.6147C2.92614 30.768 2.63014 30.9702 2.28663 31.2057C1.62449 31.6598 0.792325 32.2334 0.250669 32.6312L3.80207 37.4673C4.25099 37.1376 4.99936 36.6207 5.68004 36.1539C6.00795 35.9291 6.32393 35.7132 6.55027 35.5574C6.66358 35.4795 6.76709 35.4079 6.84663 35.3518C6.88435 35.3252 6.93135 35.2919 6.97629 35.2587C6.99658 35.2438 7.03641 35.2142 7.08231 35.1778C7.10412 35.1604 7.14738 35.1257 7.19933 35.0803C7.21089 35.0702 7.38137 34.9255 7.55618 34.7102L2.89821 30.9283ZM4.97164 35.6196L10.1716 8.76965L4.28101 7.62885L-0.918908 34.4789L4.97164 35.6196ZM7.22629 11.1992H12.4761V5.19925H7.22629V11.1992ZM9.53292 8.78023L14.8331 35.6302L20.7195 34.4683L15.4193 7.61826L9.53292 8.78023ZM19.5014 32.5949L16.1956 30.2713L12.7453 35.18L16.0511 37.5036L19.5014 32.5949ZM14.4705 32.7256C17.4608 32.485 17.4608 32.4849 17.4608 32.4847C17.4607 32.4845 17.4607 32.4842 17.4607 32.4838C17.4606 32.4831 17.4605 32.482 17.4604 32.4805C17.4602 32.4776 17.4598 32.4734 17.4594 32.4678C17.4585 32.4565 17.4571 32.4398 17.4554 32.4179C17.4518 32.374 17.4466 32.3091 17.4397 32.2245C17.4259 32.0554 17.4057 31.8078 17.3797 31.4926C17.3277 30.8623 17.2528 29.962 17.1608 28.8805C16.9769 26.7183 16.7246 23.8285 16.4511 20.9238C16.1781 18.0248 15.882 15.0881 15.6104 12.8411C15.4755 11.7246 15.3417 10.7367 15.2146 9.99648C15.1528 9.63622 15.0813 9.26728 14.9974 8.94931C14.9578 8.79936 14.8927 8.57183 14.7921 8.3315C14.7425 8.21289 14.6535 8.01606 14.5126 7.79746C14.4032 7.62769 14.0881 7.16327 13.4915 6.80869L10.4261 11.9666C9.85032 11.6243 9.55659 11.1833 9.46912 11.0476C9.35018 10.863 9.28365 10.7109 9.25704 10.6473C9.20252 10.517 9.18554 10.4407 9.19606 10.4805C9.2123 10.5421 9.24876 10.7066 9.3011 11.0116C9.4024 11.6017 9.52204 12.4711 9.65376 13.561C9.91555 15.7271 10.2057 18.6001 10.4775 21.4862C10.7487 24.3666 10.9994 27.237 11.1824 29.3889C11.2739 30.4645 11.3484 31.3596 11.4 31.9855C11.4258 32.2985 11.4458 32.5441 11.4594 32.7112C11.4662 32.7948 11.4714 32.8588 11.4749 32.9017C11.4766 32.9232 11.478 32.9395 11.4788 32.9503C11.4793 32.9557 11.4796 32.9597 11.4798 32.9624C11.4799 32.9637 11.48 32.9647 11.48 32.9654C11.4801 32.9657 11.4801 32.9659 11.4801 32.9661C11.4801 32.9662 11.4801 32.9662 14.4705 32.7256ZM13.4915 6.80869C12.7564 6.37183 11.9 6.24056 11.5161 6.18668C10.9786 6.11123 10.3908 6.07504 9.83612 6.07092C9.28552 6.06683 8.68485 6.09367 8.12923 6.17157C7.85319 6.21027 7.53129 6.26932 7.2056 6.36565C6.93381 6.44605 6.40064 6.62456 5.88898 7.0249L9.58629 11.7504C9.37989 11.9118 9.20071 12.0011 9.1074 12.0432C9.00711 12.0885 8.93495 12.1111 8.90743 12.1192C8.85725 12.1341 8.86766 12.1267 8.96226 12.1135C9.14791 12.0874 9.44184 12.0682 9.79156 12.0708C10.1372 12.0733 10.4555 12.0966 10.6821 12.1284C10.7961 12.1444 10.8476 12.1572 10.8476 12.1572C10.8459 12.1567 10.8109 12.1476 10.7521 12.1255C10.6991 12.1056 10.5789 12.0574 10.4261 11.9666L13.4915 6.80869ZM5.88898 7.0249C5.2504 7.52454 4.9974 8.15289 4.97808 8.19617C4.89545 8.38134 4.84505 8.54188 4.81958 8.62756C4.76545 8.80964 4.72729 8.98666 4.70215 9.11191C4.64851 9.37906 4.59614 9.70713 4.54586 10.0539C4.44332 10.761 4.32401 11.7252 4.19608 12.8385C3.93923 15.0737 3.63609 18.0115 3.34694 20.9246C3.05746 23.8411 2.78065 26.7463 2.5763 28.9215C2.4741 30.0094 2.38997 30.9152 2.33138 31.5492C2.30208 31.8662 2.27916 32.1153 2.26355 32.2853C2.25575 32.3703 2.24978 32.4355 2.24575 32.4795C2.24373 32.5015 2.24221 32.5182 2.24118 32.5294C2.24067 32.5351 2.24028 32.5393 2.24002 32.5422C2.23988 32.5436 2.23979 32.5447 2.23972 32.5454C2.23969 32.5458 2.23966 32.5461 2.23964 32.5463C2.23962 32.5465 2.23961 32.5466 5.2272 32.8193C8.21478 33.0919 8.21478 33.0919 8.2148 33.0917C8.21481 33.0916 8.21483 33.0913 8.21486 33.091C8.21493 33.0903 8.21502 33.0893 8.21514 33.0879C8.21539 33.0852 8.21577 33.0811 8.21627 33.0756C8.21728 33.0646 8.21878 33.0481 8.22077 33.0264C8.22475 32.9829 8.23068 32.9182 8.23843 32.8338C8.25393 32.665 8.27673 32.4171 8.30591 32.1014C8.36428 31.4699 8.44812 30.5671 8.55 29.4827C8.75379 27.3134 9.02953 24.4195 9.3176 21.5172C9.60602 18.6116 9.90547 15.7111 10.1569 13.5235C10.283 12.4253 10.3943 11.532 10.4838 10.9149C10.5295 10.5995 10.5635 10.3988 10.5848 10.2929C10.5971 10.2316 10.5935 10.261 10.5708 10.3372C10.5611 10.37 10.5257 10.488 10.4572 10.6415C10.452 10.6531 10.2124 11.2605 9.58629 11.7504L5.88898 7.0249Z" fill="#333333" mask="url(#path-14-inside-1_108_1536)"/>
<mask id="path-16-inside-2_108_1536" fill="white">
<path d="M5.29873 32.6635L2.01855 35.0465C6.47114 33.8765 12.8054 33.8984 17.774 35.0465L14.5403 32.6458C12.3584 32.0609 7.13379 32.0114 5.29873 32.6635Z"/>
</mask>
<path d="M5.29873 32.6635L2.01855 35.0465C6.47114 33.8765 12.8054 33.8984 17.774 35.0465L14.5403 32.6458C12.3584 32.0609 7.13379 32.0114 5.29873 32.6635Z" fill="#333333"/>
<path d="M2.01855 35.0465L0.255296 32.6193L2.78095 37.948L2.01855 35.0465ZM5.29873 32.6635L4.29429 29.8366L3.88601 29.9817L3.53548 30.2364L5.29873 32.6635ZM14.5403 32.6458L16.3286 30.237L15.8695 29.8962L15.3171 29.7481L14.5403 32.6458ZM17.774 35.0465L17.0986 37.9694L19.5623 32.6377L17.774 35.0465ZM3.78181 37.4736L7.06199 35.0906L3.53548 30.2364L0.255296 32.6193L3.78181 37.4736ZM6.30318 35.4903C6.68192 35.3558 7.97616 35.1868 9.78287 35.1908C11.5139 35.1946 13.0541 35.3533 13.7635 35.5435L15.3171 29.7481C13.8446 29.3534 11.6816 29.1949 9.79603 29.1908C7.98619 29.1868 5.75061 29.3192 4.29429 29.8366L6.30318 35.4903ZM12.7521 35.0545L15.9857 37.4552L19.5623 32.6377L16.3286 30.237L12.7521 35.0545ZM18.4494 32.1235C13.0728 30.8811 6.24057 30.8353 1.25616 32.145L2.78095 37.948C6.7017 36.9178 12.5379 36.9156 17.0986 37.9694L18.4494 32.1235Z" fill="#333333" mask="url(#path-16-inside-2_108_1536)"/>
<path d="M93.2937 25.8957L92.2456 24.3706L91.6504 34.835H99.0628L98.3121 33.6479H93.8917L93.2937 25.8957Z" fill="#333333"/>
<path d="M94.5409 30.6601L94.0068 29.003L94.4352 33.2552H96.7066L96.0286 33.0115H94.8045L94.5409 30.6601Z" fill="#333333"/>
<path d="M115.294 19.8574L116.392 17.399L117.257 34.835H109.266L110.636 33.1203H114.719L115.294 19.8574Z" fill="#333333"/>
<path d="M114.189 25.0702L114.56 23.3986L114.168 32.3957L113.792 32.3956L114.189 25.0702Z" fill="#333333"/>
<path d="M104.776 25.7258C103.768 25.7258 100.392 29.3313 100.394 33.8096L101.948 32.3724C101.476 29.8347 103.737 27.2026 104.776 26.3713C106.251 27.8589 106.802 29.619 106.802 29.619L107.612 29.1412C106.63 26.6659 105.343 25.7258 104.776 25.7258Z" fill="#333333"/>
<path d="M107.926 30.0097C108.364 31.2092 108.68 32.2086 108.928 33.8096L107.417 32.342L107.13 30.4954L107.926 30.0097Z" fill="#333333"/>
<path d="M96.8224 17.7286C95.8788 17.7286 94.833 19.0415 94.833 20.3347H95.5708C95.5708 20.3347 95.8751 17.9317 96.8224 17.9317C97.7147 17.9317 97.9337 20.3347 97.9337 20.3347H98.6773C98.5869 18.8752 97.6728 17.7287 96.8224 17.7286Z" fill="#333333"/>
<rect x="95.0068" y="19.812" width="3.56407" height="0.522693" fill="#333333"/>
<path d="M95.8644 19.7213C96.0572 18.6745 96.2795 18.2405 96.6631 18.1008L96.5224 18.2324C96.1603 18.5259 96.059 19.7213 96.059 19.7213L95.8644 19.7213Z" fill="#333333"/>
<path d="M110.173 13.6976C109.229 13.6975 108.184 15.1395 108.184 16.5598H108.921C108.921 16.5598 109.226 13.9206 110.173 13.9206C111.065 13.9206 111.284 16.5598 111.284 16.5598H112.028C111.937 14.9569 111.023 13.6977 110.173 13.6976Z" fill="#333333"/>
<rect x="108.357" y="15.9857" width="3.56407" height="0.574057" fill="#333333"/>
<path d="M109.215 15.8861C109.408 14.7365 109.63 14.2598 110.014 14.1063L109.873 14.2509C109.511 14.5732 109.41 15.8861 109.41 15.8861L109.215 15.8861Z" fill="#333333"/>
<path d="M102.837 18.8604L97.1564 13.0622L91.1758 18.0283H92.1387L97.1564 13.8729L102.029 18.8604H102.837Z" fill="#FA4500"/>
<path d="M94.3827 9.49155L96.8275 9.7272L106.702 20.0731L106.528 22.2365L94.3827 9.49155Z" fill="#FA4500"/>
<path d="M95.4395 11.7726L96.7318 12.9531L89.6378 18.8082L89.39 17.026L95.4395 11.7726Z" fill="#FA4500"/>
<path d="M116.068 14.1245L110.259 7.46756L104.145 13.1692H105.129L110.259 8.39836L115.242 14.1245H116.068Z" fill="#FA4500"/>
<path d="M107.423 3.36812L109.926 3.64264L119.531 15.0219L119.878 18.0435L107.423 3.36812Z" fill="#FA4500"/>
<path d="M108.649 6.19208L109.825 7.34224L102.572 14.0646L101.481 12.8775L108.649 6.19208Z" fill="#FA4500"/>
<path d="M29.8857 21.505C29.1436 21.8891 28.665 22.2407 28.4502 22.5597C28.1247 23.0545 27.9619 23.8 27.9619 24.7961V25.4308V34.0343H26.3115L21.7021 25.089V30.3918L21.6924 30.8312L21.8096 32.2375C21.9398 32.8885 22.236 33.3703 22.6982 33.6828L22.7764 33.7511C21.8779 33.4516 21.4287 32.4914 21.4287 30.8703L21.4385 29.9523V24.6105L20.9111 23.5851V29.2101C20.9111 30.994 21.0283 32.1626 21.2627 32.716C21.4971 33.2694 22.0472 33.673 22.9131 33.9269L23.7627 34.8351H18.4697L18.3135 34.5714H23.2061L22.6982 34.0343H18.1475C18.9417 33.7479 19.4691 33.3638 19.7295 32.882C19.9899 32.4002 20.1201 31.5734 20.1201 30.4015V22.589L18.8213 21.505H23.7627L22.376 22.4328L27.1025 31.6515V30.4796L23.0498 22.589L24.417 21.6613L24.6025 21.8468L23.3916 22.6671L27.1025 29.9523V25.3918V24.8742C27.1025 23.7414 27.0081 22.9862 26.8193 22.6086C26.637 22.2244 26.1813 21.8566 25.4521 21.505H29.8857ZM30.2275 22.2277L30.0518 22.5207C29.5505 22.6378 29.2087 22.8559 29.0264 23.175C28.8506 23.4875 28.7627 24.0181 28.7627 24.7668V34.8351H26.6631L26.5361 34.5714H28.499V24.8644C28.499 23.9464 28.6162 23.3084 28.8506 22.9503C29.0915 22.5858 29.5505 22.3449 30.2275 22.2277ZM43.792 18.4191L43.8994 18.5265C43.0465 19.3468 42.3499 20.2257 41.8096 21.1632C41.2692 22.1007 40.6214 23.5656 39.8662 25.5578L37.0146 33.0187L38.1768 34.0343H33.6748L34.9639 32.9699L31.3896 22.7941L29.8857 21.505H34.7295L33.3525 22.882L36.5752 32.0519L36.9561 31.1437L34.0752 23.0187L35.0713 22.0324L35.2471 22.2179L34.3779 23.0773L37.083 30.8019L39.1533 25.2746C39.7718 23.6339 40.0811 22.4849 40.0811 21.8273C40.0811 21.1632 39.8369 20.5936 39.3486 20.1183L39.5342 20.0793C41.4287 19.7147 42.848 19.1613 43.792 18.4191ZM44.3193 19.0148L44.4072 19.2394C43.1637 20.2095 41.8812 22.423 40.5596 25.88L37.8057 33.0578L39.3291 34.8351H34.29L34.0752 34.5714H38.7529L37.5225 33.1261L40.3252 25.8117L40.8525 24.425C41.3213 23.227 41.8747 22.1333 42.5127 21.1437C43.1507 20.1476 43.7529 19.438 44.3193 19.0148ZM53.7432 21.505L53.5869 21.6906C52.9229 22.5044 52.3955 23.4386 52.0049 24.4933C51.9398 24.3436 51.891 24.2329 51.8584 24.1613C51.5003 23.38 51.1162 22.8755 50.7061 22.6476C50.2959 22.4197 49.5602 22.3058 48.499 22.3058C48.0107 22.3058 47.4248 22.3221 46.7412 22.3546V26.8468H47.3662V22.8722C47.861 22.8266 48.333 22.8039 48.7822 22.8039C49.609 22.8039 50.2178 22.8918 50.6084 23.0675C50.999 23.2433 51.3473 23.5851 51.6533 24.0929C51.5622 24.0278 51.4971 23.979 51.458 23.9464C50.9307 23.5298 50.5498 23.2824 50.3154 23.2043C50.0811 23.1261 49.6188 23.0871 48.9287 23.0871C48.7204 23.0871 48.3493 23.1001 47.8154 23.1261L47.6104 23.1359V26.8468H49.4072L50.667 25.1183V29.3273L49.4072 27.6964H46.7412V33.175H47.3662V28.1554H49.4854L49.7393 28.4093H47.6104V33.175C48.9385 33.175 49.8825 33.0806 50.4424 32.8918C51.0023 32.703 51.4417 32.3319 51.7607 31.7785L52.2783 30.8898C52.2979 30.8507 52.3369 30.7791 52.3955 30.675C52.5648 31.3911 52.7731 31.964 53.0205 32.3937C53.2744 32.8234 53.6911 33.3247 54.2705 33.8976H43.3232L44.8076 32.7648V28.4093C44.2607 28.4744 43.766 28.6437 43.3232 28.9171L43.1865 28.7121C43.5837 28.4256 44.124 28.2401 44.8076 28.1554V27.6964C44.6969 27.6834 44.6188 27.6769 44.5732 27.6769C43.9092 27.6769 43.3037 27.9211 42.7568 28.4093C43.0563 27.3677 43.7399 26.8468 44.8076 26.8468V22.6769L43.3232 21.505H53.7432ZM54.2119 22.1886L54.1436 22.2765C53.3493 23.3442 52.8187 24.2394 52.5518 24.9621L52.3857 24.757C52.8219 23.7479 53.3851 22.8234 54.0752 21.9836L54.2119 22.1886ZM51.3408 25.4406V29.757L51.0967 29.63V25.3136L51.3408 25.4406ZM55.3838 33.9562L54.876 34.8351H44.2119L44.0557 34.5714H54.749L55.0811 33.9562C54.1436 33.0903 53.4827 32.1658 53.0986 31.1828L53.4111 31.3C53.7692 32.1333 54.3747 32.9666 55.2275 33.8L55.3838 33.9562ZM64.7686 21.6125C64.43 22.0682 64.1598 22.5434 63.958 23.0382C63.5609 24.0148 63.2972 24.6138 63.167 24.8351L63.1182 24.8937C63.0921 24.8221 63.0726 24.7668 63.0596 24.7277C62.8773 24.1418 62.7275 23.7349 62.6104 23.507C62.4932 23.2791 62.3174 23.061 62.083 22.8527C61.4906 22.3253 60.8167 22.0617 60.0615 22.0617C59.3649 22.0617 58.7855 22.257 58.3232 22.6476C57.861 23.0317 57.6299 23.5168 57.6299 24.1027C57.6299 25.1964 58.4535 25.9419 60.1006 26.339L61.751 26.7394C64.1012 27.3058 65.2764 28.5461 65.2764 30.4601C65.2764 31.5278 64.8727 32.4263 64.0654 33.1554C63.2646 33.8781 62.2718 34.2394 61.0869 34.2394C60.3447 34.2394 59.5146 34.1255 58.5967 33.8976L57.4541 33.6144C56.9919 33.5037 56.611 33.4484 56.3115 33.4484C55.9144 33.4484 55.5042 33.5753 55.0811 33.8293L55.0029 33.6925C55.8102 32.4751 56.3766 31.3162 56.7021 30.216L56.8779 30.2648C57.0146 31.2869 57.4248 32.0812 58.1084 32.6476C58.792 33.214 59.6872 33.4972 60.7939 33.4972C61.6663 33.4972 62.3597 33.2954 62.874 32.8918C63.3883 32.4881 63.6455 31.9445 63.6455 31.2609C63.6455 30.4731 63.2874 29.8221 62.5713 29.3078C62.057 28.9432 61.0023 28.6046 59.4072 28.2921C58.1768 28.0513 57.2848 27.6509 56.7314 27.091C56.1781 26.5311 55.9014 25.7531 55.9014 24.757C55.9014 23.7283 56.2692 22.895 57.0049 22.257C57.7471 21.6125 58.7106 21.2902 59.8955 21.2902C60.6572 21.2902 61.5459 21.4269 62.5615 21.7003C63.0368 21.8306 63.3883 21.8957 63.6162 21.8957C63.9352 21.8957 64.2835 21.785 64.6611 21.5636L64.7686 21.6125ZM65.374 22.0226L65.2861 22.1691C65.0192 22.6183 64.7913 23.048 64.6025 23.4582C64.1468 24.4152 63.8896 24.949 63.8311 25.0597L63.7822 25.1281L63.5479 25.0304L63.5869 24.9425C63.7757 24.5128 64.0492 23.953 64.4072 23.2628L65.0713 21.9738L65.1201 21.8957L65.374 22.0226ZM62.5225 23.966C61.8063 23.2043 61.0381 22.8234 60.2178 22.8234C59.723 22.8234 59.3128 22.9666 58.9873 23.2531C58.6618 23.5395 58.499 23.9041 58.499 24.3468C58.499 24.8286 58.8278 25.3234 59.4854 25.8312L59.5635 25.88L59.5146 25.9582C58.6553 25.574 58.2256 25.0174 58.2256 24.2882C58.2256 23.7804 58.4079 23.367 58.7725 23.048C59.137 22.729 59.6123 22.5695 60.1982 22.5695C60.7581 22.5695 61.2464 22.6899 61.6631 22.9308C62.0863 23.1652 62.3955 23.4972 62.5908 23.9269L62.5225 23.966ZM64.7686 27.8429C65.654 28.5135 66.0967 29.4315 66.0967 30.5968C66.0967 31.8403 65.6149 32.895 64.6514 33.7609C63.6878 34.6203 62.516 35.05 61.1357 35.05C60.4326 35.05 59.7979 34.9783 59.2314 34.8351L57.6689 34.4543C57.3044 34.3631 56.9137 34.3175 56.4971 34.3175C56.126 34.3175 55.7842 34.3924 55.4717 34.5421L55.3545 34.2589C55.693 34.1027 56.0381 34.0246 56.3896 34.0246C56.7803 34.0246 57.2262 34.0832 57.7275 34.2003L59.2314 34.5617C59.8304 34.7049 60.4619 34.7765 61.126 34.7765C62.4281 34.7765 63.5348 34.3631 64.4463 33.5363C65.3643 32.703 65.8232 31.6971 65.8232 30.5187C65.8232 29.5226 65.4717 28.6502 64.7686 27.9015V27.8429ZM57.8154 30.6554C58.0563 31.8273 58.7008 32.6574 59.749 33.1457V33.2238C58.5381 32.8722 57.8057 32.0324 57.5518 30.7043L57.8154 30.6554ZM56.5947 27.4914L56.9268 27.6769C57.1416 28.061 57.7699 28.38 58.8115 28.6339L60.3838 29.0246C61.4515 29.2915 62.1611 29.5226 62.5127 29.7179C62.8708 29.9067 63.1247 30.1964 63.2744 30.5871L63.2061 30.6261C62.9131 30.2876 62.5941 30.0402 62.249 29.8839C61.9105 29.7277 61.2562 29.5356 60.2861 29.3078C58.8799 28.9822 57.9359 28.7023 57.4541 28.4679C56.9723 28.227 56.6859 27.9015 56.5947 27.4914ZM77.5811 21.505C77.5225 21.6157 77.4834 21.6906 77.4639 21.7296L76.7998 22.9015C76.5719 23.3182 76.3604 23.839 76.165 24.464L76.1455 24.5128L76.0479 24.4445L76.0186 24.3175C75.8298 23.5753 75.5596 23.061 75.208 22.7746C74.863 22.4881 74.3324 22.3449 73.6162 22.3449C73.3232 22.3449 73.0303 22.3579 72.7373 22.3839H72.6201V32.9699L73.7725 34.0343H69.3096L70.6768 32.8918V23.175L69.9834 23.1652C69.3128 23.1652 68.8343 23.2987 68.5479 23.5656C68.2679 23.826 68.1019 24.2882 68.0498 24.9523H67.7959C67.8675 24.1906 68.0628 23.66 68.3818 23.3605C68.7074 23.061 69.2412 22.9113 69.9834 22.9113L70.5693 22.9211H70.6768V22.4425C70.3447 22.4035 70.029 22.3839 69.7295 22.3839C68.8896 22.3839 68.2842 22.5565 67.9131 22.9015C67.542 23.2401 67.3369 23.8162 67.2979 24.63H67.1807C66.9007 23.7251 66.4678 22.716 65.8818 21.6027L65.8232 21.505H77.5811ZM78.1963 22.1203C77.7471 22.6932 77.2751 23.6437 76.7803 24.9718L76.7412 25.0695L76.5264 24.8839L76.5557 24.7961C77.0374 23.4484 77.5029 22.5109 77.9521 21.9836L78.001 21.925L78.1963 22.1203ZM75.5889 23.6437C75.0876 23.3182 74.5016 23.1554 73.8311 23.1554C73.6813 23.1554 73.5251 23.1652 73.3623 23.1847L73.4014 32.9992L74.9541 34.8351H69.9639L69.7393 34.5714H74.417L73.1084 33.0773V22.9015L73.6357 22.8918C74.2673 22.8918 74.7132 22.9438 74.9736 23.048C75.2406 23.1457 75.4456 23.3442 75.5889 23.6437ZM125.843 23.6828L125.677 23.5851C125.052 23.2401 124.479 23.0675 123.958 23.0675C122.246 23.0675 121.39 24.7505 121.39 28.1164C121.39 30.5773 121.92 32.2082 122.981 33.0089L122.894 33.1066C122.243 32.6444 121.777 32.0389 121.497 31.2902C121.224 30.535 121.087 29.5161 121.087 28.2336C121.087 24.6203 122.037 22.8136 123.938 22.8136C124.804 22.8136 125.439 23.1033 125.843 23.6828ZM123.753 21.3781C125.335 21.3781 126.598 21.977 127.542 23.175C128.493 24.3729 128.968 25.9744 128.968 27.9796C128.968 29.8742 128.499 31.3846 127.562 32.5109C126.631 33.6372 125.377 34.2003 123.802 34.2003C122.558 34.2003 121.451 33.8032 120.481 33.0089C119.056 31.8371 118.343 30.102 118.343 27.8039C118.343 25.8377 118.831 24.2752 119.808 23.1164C120.784 21.9575 122.099 21.3781 123.753 21.3781ZM123.753 22.2179C121.552 22.2179 120.452 24.1515 120.452 28.0187C120.452 31.5929 121.536 33.38 123.704 33.38C124.713 33.38 125.481 32.908 126.009 31.964C126.536 31.0135 126.8 29.6268 126.8 27.8039C126.8 25.7401 126.546 24.3013 126.038 23.4875C125.504 22.6411 124.743 22.2179 123.753 22.2179ZM126.868 21.8761C127.799 22.3253 128.535 23.0936 129.075 24.1808C129.616 25.2681 129.886 26.5246 129.886 27.9503C129.886 30.0467 129.352 31.7394 128.284 33.0285C127.223 34.3175 125.826 34.9621 124.095 34.9621C122.988 34.9621 121.953 34.5877 120.989 33.839V33.7902C121.797 34.3826 122.809 34.6789 124.026 34.6789C125.66 34.6789 127.002 34.0636 128.05 32.8332C129.098 31.6027 129.622 30.0304 129.622 28.1164C129.622 26.6906 129.381 25.4438 128.899 24.3761C128.424 23.3084 127.747 22.5109 126.868 21.9836V21.8761ZM141.897 21.505C141.155 21.8891 140.677 22.2407 140.462 22.5597C140.136 23.0545 139.974 23.8 139.974 24.7961V25.4308V34.0343H138.323L133.714 25.089V30.3918L133.704 30.8312L133.821 32.2375C133.951 32.8885 134.248 33.3703 134.71 33.6828L134.788 33.7511C133.89 33.4516 133.44 32.4914 133.44 30.8703L133.45 29.9523V24.6105L132.923 23.5851V29.2101C132.923 30.994 133.04 32.1626 133.274 32.716C133.509 33.2694 134.059 33.673 134.925 33.9269L135.774 34.8351H130.481L130.325 34.5714H135.218L134.71 34.0343H130.159C130.953 33.7479 131.481 33.3638 131.741 32.882C132.002 32.4002 132.132 31.5734 132.132 30.4015V22.589L130.833 21.505H135.774L134.388 22.4328L139.114 31.6515V30.4796L135.062 22.589L136.429 21.6613L136.614 21.8468L135.403 22.6671L139.114 29.9523V25.3918V24.8742C139.114 23.7414 139.02 22.9862 138.831 22.6086C138.649 22.2244 138.193 21.8566 137.464 21.505H141.897ZM142.239 22.2277L142.063 22.5207C141.562 22.6378 141.22 22.8559 141.038 23.175C140.862 23.4875 140.774 24.0181 140.774 24.7668V34.8351H138.675L138.548 34.5714H140.511V24.8644C140.511 23.9464 140.628 23.3084 140.862 22.9503C141.103 22.5858 141.562 22.3449 142.239 22.2277ZM153.655 21.505C153.597 21.6157 153.558 21.6906 153.538 21.7296L152.874 22.9015C152.646 23.3182 152.435 23.839 152.239 24.464L152.22 24.5128L152.122 24.4445L152.093 24.3175C151.904 23.5753 151.634 23.061 151.282 22.7746C150.937 22.4881 150.407 22.3449 149.69 22.3449C149.397 22.3449 149.104 22.3579 148.812 22.3839H148.694V32.9699L149.847 34.0343H145.384L146.751 32.8918V23.175L146.058 23.1652C145.387 23.1652 144.909 23.2987 144.622 23.5656C144.342 23.826 144.176 24.2882 144.124 24.9523H143.87C143.942 24.1906 144.137 23.66 144.456 23.3605C144.782 23.061 145.315 22.9113 146.058 22.9113L146.644 22.9211H146.751V22.4425C146.419 22.4035 146.103 22.3839 145.804 22.3839C144.964 22.3839 144.358 22.5565 143.987 22.9015C143.616 23.2401 143.411 23.8162 143.372 24.63H143.255C142.975 23.7251 142.542 22.716 141.956 21.6027L141.897 21.505H153.655ZM154.271 22.1203C153.821 22.6932 153.349 23.6437 152.854 24.9718L152.815 25.0695L152.601 24.8839L152.63 24.7961C153.112 23.4484 153.577 22.5109 154.026 21.9836L154.075 21.925L154.271 22.1203ZM151.663 23.6437C151.162 23.3182 150.576 23.1554 149.905 23.1554C149.756 23.1554 149.599 23.1652 149.437 23.1847L149.476 32.9992L151.028 34.8351H146.038L145.813 34.5714H150.491L149.183 33.0773V22.9015L149.71 22.8918C150.341 22.8918 150.787 22.9438 151.048 23.048C151.315 23.1457 151.52 23.3442 151.663 23.6437ZM164.935 21.505L164.778 21.6906C164.114 22.5044 163.587 23.4386 163.196 24.4933C163.131 24.3436 163.082 24.2329 163.05 24.1613C162.692 23.38 162.308 22.8755 161.897 22.6476C161.487 22.4197 160.752 22.3058 159.69 22.3058C159.202 22.3058 158.616 22.3221 157.933 22.3546V26.8468H158.558V22.8722C159.052 22.8266 159.524 22.8039 159.974 22.8039C160.8 22.8039 161.409 22.8918 161.8 23.0675C162.19 23.2433 162.539 23.5851 162.845 24.0929C162.754 24.0278 162.688 23.979 162.649 23.9464C162.122 23.5298 161.741 23.2824 161.507 23.2043C161.272 23.1261 160.81 23.0871 160.12 23.0871C159.912 23.0871 159.541 23.1001 159.007 23.1261L158.802 23.1359V26.8468H160.599L161.858 25.1183V29.3273L160.599 27.6964H157.933V33.175H158.558V28.1554H160.677L160.931 28.4093H158.802V33.175C160.13 33.175 161.074 33.0806 161.634 32.8918C162.194 32.703 162.633 32.3319 162.952 31.7785L163.47 30.8898C163.489 30.8507 163.528 30.7791 163.587 30.675C163.756 31.3911 163.965 31.964 164.212 32.3937C164.466 32.8234 164.882 33.3247 165.462 33.8976H154.515L155.999 32.7648V28.4093C155.452 28.4744 154.957 28.6437 154.515 28.9171L154.378 28.7121C154.775 28.4256 155.315 28.2401 155.999 28.1554V27.6964C155.888 27.6834 155.81 27.6769 155.765 27.6769C155.101 27.6769 154.495 27.9211 153.948 28.4093C154.248 27.3677 154.931 26.8468 155.999 26.8468V22.6769L154.515 21.505H164.935ZM165.403 22.1886L165.335 22.2765C164.541 23.3442 164.01 24.2394 163.743 24.9621L163.577 24.757C164.013 23.7479 164.576 22.8234 165.267 21.9836L165.403 22.1886ZM162.532 25.4406V29.757L162.288 29.63V25.3136L162.532 25.4406ZM166.575 33.9562L166.067 34.8351H155.403L155.247 34.5714H165.94L166.272 33.9562C165.335 33.0903 164.674 32.1658 164.29 31.1828L164.603 31.3C164.961 32.1333 165.566 32.9666 166.419 33.8L166.575 33.9562Z" fill="#333333"/>
</svg>
